<mxfile host="Electron" modified="2023-06-02T21:58:19.439Z" agent="Mozilla/5.0 (Windows NT 10.0; Win64; x64) AppleWebKit/537.36 (KHTML, like Gecko) draw.io/21.2.8 Chrome/112.0.5615.165 Electron/24.2.0 Safari/537.36" etag="rTBhBqEC8GOKKXTQVFLH" version="21.2.8" type="device">
  <diagram name="Page-1" id="IQTiKRB02Jf_GiqLcTtX">
    <mxGraphModel dx="2736" dy="606" grid="1" gridSize="10" guides="1" tooltips="1" connect="1" arrows="1" fold="1" page="1" pageScale="1" pageWidth="850" pageHeight="1100" math="0" shadow="0">
      <root>
        <mxCell id="0" />
        <mxCell id="1" parent="0" />
        <mxCell id="qbaSDtBNnqxAWvWLSkWQ-3" value="χρήστης" style="shape=umlActor;verticalLabelPosition=bottom;verticalAlign=top;html=1;" parent="1" vertex="1">
          <mxGeometry x="-920" y="140" width="30" height="60" as="geometry" />
        </mxCell>
        <mxCell id="qbaSDtBNnqxAWvWLSkWQ-31" value="κύρια οθόνη" style="shape=umlBoundary;whiteSpace=wrap;html=1;" parent="1" vertex="1">
          <mxGeometry x="-680" y="250" width="100" height="80" as="geometry" />
        </mxCell>
        <mxCell id="qbaSDtBNnqxAWvWLSkWQ-34" value="προβολή&amp;nbsp;αγαπημένων &lt;br&gt;προϊόντων&lt;br&gt;&amp;nbsp;" style="text;html=1;align=center;verticalAlign=middle;resizable=0;points=[];autosize=1;strokeColor=none;fillColor=none;rotation=30;" parent="1" vertex="1">
          <mxGeometry x="-850" y="200" width="140" height="60" as="geometry" />
        </mxCell>
        <mxCell id="qbaSDtBNnqxAWvWLSkWQ-35" value="αγαπημένα&lt;br style=&quot;border-color: var(--border-color);&quot;&gt;προϊόντα&amp;nbsp;" style="ellipse;shape=umlControl;whiteSpace=wrap;html=1;" parent="1" vertex="1">
          <mxGeometry x="-425" y="260" width="70" height="80" as="geometry" />
        </mxCell>
        <mxCell id="qbaSDtBNnqxAWvWLSkWQ-37" value="λίστα με αγαπημένα&lt;br style=&quot;border-color: var(--border-color);&quot;&gt;&lt;span style=&quot;&quot;&gt;προϊόντα&amp;nbsp;&lt;/span&gt;" style="shape=umlBoundary;whiteSpace=wrap;html=1;" parent="1" vertex="1">
          <mxGeometry x="-680" y="390" width="100" height="80" as="geometry" />
        </mxCell>
        <mxCell id="qbaSDtBNnqxAWvWLSkWQ-42" value="" style="endArrow=classic;html=1;rounded=0;exitX=1.01;exitY=0.55;exitDx=0;exitDy=0;exitPerimeter=0;entryX=0;entryY=0.425;entryDx=0;entryDy=0;entryPerimeter=0;" parent="1" source="qbaSDtBNnqxAWvWLSkWQ-31" target="qbaSDtBNnqxAWvWLSkWQ-35" edge="1">
          <mxGeometry width="50" height="50" relative="1" as="geometry">
            <mxPoint x="180" y="500" as="sourcePoint" />
            <mxPoint x="230" y="450" as="targetPoint" />
          </mxGeometry>
        </mxCell>
        <mxCell id="qbaSDtBNnqxAWvWLSkWQ-43" value="εμφάνισε" style="ellipse;shape=umlControl;whiteSpace=wrap;html=1;" parent="1" vertex="1">
          <mxGeometry x="-415" y="390" width="70" height="80" as="geometry" />
        </mxCell>
        <mxCell id="qbaSDtBNnqxAWvWLSkWQ-45" value="" style="endArrow=classic;html=1;rounded=0;exitX=1.01;exitY=0.513;exitDx=0;exitDy=0;exitPerimeter=0;entryX=0;entryY=0.5;entryDx=0;entryDy=0;entryPerimeter=0;" parent="1" source="qbaSDtBNnqxAWvWLSkWQ-37" target="qbaSDtBNnqxAWvWLSkWQ-43" edge="1">
          <mxGeometry width="50" height="50" relative="1" as="geometry">
            <mxPoint x="210" y="610" as="sourcePoint" />
            <mxPoint x="260" y="560" as="targetPoint" />
          </mxGeometry>
        </mxCell>
        <mxCell id="qbaSDtBNnqxAWvWLSkWQ-46" value="Αγορά ή&amp;nbsp; Αφαίρεση&lt;br style=&quot;border-color: var(--border-color);&quot;&gt;&lt;span style=&quot;&quot;&gt;απο την λίστα&lt;/span&gt;" style="shape=umlBoundary;whiteSpace=wrap;html=1;" parent="1" vertex="1">
          <mxGeometry x="-680" y="552" width="100" height="80" as="geometry" />
        </mxCell>
        <mxCell id="qbaSDtBNnqxAWvWLSkWQ-48" value="" style="endArrow=classic;html=1;rounded=0;exitX=0.029;exitY=0.75;exitDx=0;exitDy=0;exitPerimeter=0;entryX=0.88;entryY=0.138;entryDx=0;entryDy=0;entryPerimeter=0;" parent="1" source="qbaSDtBNnqxAWvWLSkWQ-43" target="qbaSDtBNnqxAWvWLSkWQ-46" edge="1">
          <mxGeometry width="50" height="50" relative="1" as="geometry">
            <mxPoint x="-150" y="672" as="sourcePoint" />
            <mxPoint x="-100" y="622" as="targetPoint" />
          </mxGeometry>
        </mxCell>
        <mxCell id="qbaSDtBNnqxAWvWLSkWQ-50" value="Aγορά ή Αφαίρεση από την λίστα" style="text;html=1;align=center;verticalAlign=middle;resizable=0;points=[];autosize=1;strokeColor=none;fillColor=none;rotation=60;" parent="1" vertex="1">
          <mxGeometry x="-860" y="390" width="200" height="30" as="geometry" />
        </mxCell>
        <mxCell id="qbaSDtBNnqxAWvWLSkWQ-51" value="Επιλογή προϊόντος" style="text;html=1;align=center;verticalAlign=middle;resizable=0;points=[];autosize=1;strokeColor=none;fillColor=none;rotation=45;" parent="1" vertex="1">
          <mxGeometry x="-830" y="285" width="130" height="30" as="geometry" />
        </mxCell>
        <mxCell id="qbaSDtBNnqxAWvWLSkWQ-52" value="" style="endArrow=classic;html=1;rounded=0;exitX=1;exitY=0.75;exitDx=0;exitDy=0;exitPerimeter=0;entryX=-0.057;entryY=0.6;entryDx=0;entryDy=0;entryPerimeter=0;" parent="1" source="qbaSDtBNnqxAWvWLSkWQ-46" target="qbaSDtBNnqxAWvWLSkWQ-53" edge="1">
          <mxGeometry width="50" height="50" relative="1" as="geometry">
            <mxPoint x="-220" y="662" as="sourcePoint" />
            <mxPoint x="-50" y="787" as="targetPoint" />
          </mxGeometry>
        </mxCell>
        <mxCell id="qbaSDtBNnqxAWvWLSkWQ-53" value="εiναι σε stock ?" style="ellipse;shape=umlControl;whiteSpace=wrap;html=1;" parent="1" vertex="1">
          <mxGeometry x="-520" y="697" width="70" height="80" as="geometry" />
        </mxCell>
        <mxCell id="qbaSDtBNnqxAWvWLSkWQ-54" value="αγορά" style="text;html=1;align=center;verticalAlign=middle;resizable=0;points=[];autosize=1;strokeColor=none;fillColor=none;" parent="1" vertex="1">
          <mxGeometry x="-570" y="632" width="60" height="30" as="geometry" />
        </mxCell>
        <mxCell id="qbaSDtBNnqxAWvWLSkWQ-56" value="φαρμακεία" style="ellipse;shape=umlEntity;whiteSpace=wrap;html=1;" parent="1" vertex="1">
          <mxGeometry x="-355" y="840" width="80" height="80" as="geometry" />
        </mxCell>
        <mxCell id="qbaSDtBNnqxAWvWLSkWQ-59" value="εμφάνισε" style="ellipse;shape=umlControl;whiteSpace=wrap;html=1;" parent="1" vertex="1">
          <mxGeometry x="-690" y="840" width="70" height="80" as="geometry" />
        </mxCell>
        <mxCell id="qbaSDtBNnqxAWvWLSkWQ-60" value="ναι" style="text;html=1;align=center;verticalAlign=middle;resizable=0;points=[];autosize=1;strokeColor=none;fillColor=none;" parent="1" vertex="1">
          <mxGeometry x="-490" y="790" width="40" height="30" as="geometry" />
        </mxCell>
        <mxCell id="qbaSDtBNnqxAWvWLSkWQ-63" value="οθόνη με τα φαρμακεία&lt;br style=&quot;border-color: var(--border-color);&quot;&gt;&lt;span style=&quot;&quot;&gt;που ειναι διαθέσιμο&lt;/span&gt;&lt;br style=&quot;border-color: var(--border-color);&quot;&gt;&lt;span style=&quot;&quot;&gt;το προϊόν&lt;/span&gt;" style="shape=umlBoundary;whiteSpace=wrap;html=1;" parent="1" vertex="1">
          <mxGeometry x="-730" y="700" width="120" height="93" as="geometry" />
        </mxCell>
        <mxCell id="qbaSDtBNnqxAWvWLSkWQ-68" value="προσθήκη στο καλάθι" style="ellipse;shape=umlControl;whiteSpace=wrap;html=1;" parent="1" vertex="1">
          <mxGeometry x="-830" y="820" width="70" height="80" as="geometry" />
        </mxCell>
        <mxCell id="qbaSDtBNnqxAWvWLSkWQ-74" value="Αφαίρεση από την λίστα" style="ellipse;shape=umlControl;whiteSpace=wrap;html=1;fillColor=#f8cecc;strokeColor=#b85450;" parent="1" vertex="1">
          <mxGeometry x="-240" y="530" width="90" height="90" as="geometry" />
        </mxCell>
        <mxCell id="qbaSDtBNnqxAWvWLSkWQ-75" value="αγαπημένα" style="ellipse;shape=umlEntity;whiteSpace=wrap;html=1;fillColor=#f8cecc;strokeColor=#b85450;" parent="1" vertex="1">
          <mxGeometry x="-240" y="400" width="80" height="80" as="geometry" />
        </mxCell>
        <mxCell id="qbaSDtBNnqxAWvWLSkWQ-77" value="" style="endArrow=classic;html=1;rounded=0;exitX=1;exitY=0.388;exitDx=0;exitDy=0;exitPerimeter=0;entryX=0.071;entryY=0.625;entryDx=0;entryDy=0;entryPerimeter=0;fillColor=#f8cecc;strokeColor=#b85450;" parent="1" source="qbaSDtBNnqxAWvWLSkWQ-46" target="qbaSDtBNnqxAWvWLSkWQ-74" edge="1">
          <mxGeometry width="50" height="50" relative="1" as="geometry">
            <mxPoint x="20" y="782" as="sourcePoint" />
            <mxPoint x="70" y="732" as="targetPoint" />
          </mxGeometry>
        </mxCell>
        <mxCell id="qbaSDtBNnqxAWvWLSkWQ-78" value="" style="endArrow=classic;html=1;rounded=0;exitX=0.457;exitY=0.15;exitDx=0;exitDy=0;exitPerimeter=0;entryX=0.5;entryY=1;entryDx=0;entryDy=0;fillColor=#f8cecc;strokeColor=#b85450;" parent="1" source="qbaSDtBNnqxAWvWLSkWQ-74" target="qbaSDtBNnqxAWvWLSkWQ-75" edge="1">
          <mxGeometry width="50" height="50" relative="1" as="geometry">
            <mxPoint x="20" y="782" as="sourcePoint" />
            <mxPoint x="70" y="732" as="targetPoint" />
          </mxGeometry>
        </mxCell>
        <mxCell id="qbaSDtBNnqxAWvWLSkWQ-79" value="αφαίρεση" style="text;html=1;align=center;verticalAlign=middle;resizable=0;points=[];autosize=1;strokeColor=#b85450;fillColor=#f8cecc;" parent="1" vertex="1">
          <mxGeometry x="-470" y="555" width="70" height="30" as="geometry" />
        </mxCell>
        <mxCell id="qbaSDtBNnqxAWvWLSkWQ-80" value="Προβολή εναλλακτικών προϊόντων για προϊόντα που είναι out of stock" style="ellipse;whiteSpace=wrap;html=1;fillColor=#fff2cc;strokeColor=#d6b656;" parent="1" vertex="1">
          <mxGeometry x="-225" y="685" width="120" height="80" as="geometry" />
        </mxCell>
        <mxCell id="qbaSDtBNnqxAWvWLSkWQ-81" value="" style="endArrow=classic;html=1;rounded=0;exitX=1.014;exitY=0.35;exitDx=0;exitDy=0;exitPerimeter=0;fillColor=#fff2cc;strokeColor=#d6b656;entryX=0;entryY=0.5;entryDx=0;entryDy=0;" parent="1" source="qbaSDtBNnqxAWvWLSkWQ-53" target="qbaSDtBNnqxAWvWLSkWQ-80" edge="1">
          <mxGeometry width="50" height="50" relative="1" as="geometry">
            <mxPoint x="170" y="882" as="sourcePoint" />
            <mxPoint x="140" y="862" as="targetPoint" />
          </mxGeometry>
        </mxCell>
        <mxCell id="qbaSDtBNnqxAWvWLSkWQ-82" value="οχι" style="text;html=1;align=center;verticalAlign=middle;resizable=0;points=[];autosize=1;strokeColor=#d6b656;fillColor=#fff2cc;" parent="1" vertex="1">
          <mxGeometry x="-395" y="685" width="40" height="30" as="geometry" />
        </mxCell>
        <mxCell id="2-c7B4VhWy937aU1t4bQ-7" value="" style="endArrow=classic;html=1;rounded=0;entryX=-0.03;entryY=0.5;entryDx=0;entryDy=0;entryPerimeter=0;" parent="1" source="qbaSDtBNnqxAWvWLSkWQ-3" target="qbaSDtBNnqxAWvWLSkWQ-31" edge="1">
          <mxGeometry width="50" height="50" relative="1" as="geometry">
            <mxPoint x="-230" y="240" as="sourcePoint" />
            <mxPoint x="-180" y="190" as="targetPoint" />
          </mxGeometry>
        </mxCell>
        <mxCell id="2-c7B4VhWy937aU1t4bQ-9" value="" style="endArrow=classic;html=1;rounded=0;entryX=0.02;entryY=0.513;entryDx=0;entryDy=0;entryPerimeter=0;" parent="1" source="qbaSDtBNnqxAWvWLSkWQ-3" target="qbaSDtBNnqxAWvWLSkWQ-37" edge="1">
          <mxGeometry width="50" height="50" relative="1" as="geometry">
            <mxPoint x="-230" y="380" as="sourcePoint" />
            <mxPoint x="-180" y="330" as="targetPoint" />
          </mxGeometry>
        </mxCell>
        <mxCell id="2-c7B4VhWy937aU1t4bQ-10" value="" style="endArrow=classic;html=1;rounded=0;exitX=1.02;exitY=0.508;exitDx=0;exitDy=0;exitPerimeter=0;entryX=0.043;entryY=0.508;entryDx=0;entryDy=0;entryPerimeter=0;" parent="1" source="qbaSDtBNnqxAWvWLSkWQ-35" target="u4nq2--EvxjBtqNpTbSl-1" edge="1">
          <mxGeometry width="50" height="50" relative="1" as="geometry">
            <mxPoint x="-270" y="350" as="sourcePoint" />
            <mxPoint x="-220" y="300" as="targetPoint" />
          </mxGeometry>
        </mxCell>
        <mxCell id="2-c7B4VhWy937aU1t4bQ-12" value="" style="endArrow=classic;html=1;rounded=0;entryX=-0.02;entryY=0.55;entryDx=0;entryDy=0;entryPerimeter=0;" parent="1" source="qbaSDtBNnqxAWvWLSkWQ-3" target="qbaSDtBNnqxAWvWLSkWQ-46" edge="1">
          <mxGeometry width="50" height="50" relative="1" as="geometry">
            <mxPoint x="-270" y="450" as="sourcePoint" />
            <mxPoint x="-220" y="400" as="targetPoint" />
          </mxGeometry>
        </mxCell>
        <mxCell id="2-c7B4VhWy937aU1t4bQ-16" value="" style="endArrow=classic;html=1;rounded=0;entryX=-0.017;entryY=0.538;entryDx=0;entryDy=0;entryPerimeter=0;" parent="1" source="qbaSDtBNnqxAWvWLSkWQ-3" target="qbaSDtBNnqxAWvWLSkWQ-63" edge="1">
          <mxGeometry width="50" height="50" relative="1" as="geometry">
            <mxPoint x="-880" y="209" as="sourcePoint" />
            <mxPoint x="-672" y="606" as="targetPoint" />
          </mxGeometry>
        </mxCell>
        <mxCell id="2-c7B4VhWy937aU1t4bQ-17" value="Επιλογή Φαρμακείου" style="text;html=1;align=center;verticalAlign=middle;resizable=0;points=[];autosize=1;strokeColor=none;fillColor=none;rotation=75;" parent="1" vertex="1">
          <mxGeometry x="-850" y="490" width="140" height="30" as="geometry" />
        </mxCell>
        <mxCell id="2-c7B4VhWy937aU1t4bQ-19" value="" style="endArrow=classic;html=1;rounded=0;exitX=0.258;exitY=0.849;exitDx=0;exitDy=0;exitPerimeter=0;" parent="1" source="qbaSDtBNnqxAWvWLSkWQ-63" target="qbaSDtBNnqxAWvWLSkWQ-68" edge="1">
          <mxGeometry width="50" height="50" relative="1" as="geometry">
            <mxPoint x="-270" y="670" as="sourcePoint" />
            <mxPoint x="-220" y="620" as="targetPoint" />
          </mxGeometry>
        </mxCell>
        <mxCell id="kx_d8gpz1fThckoxQMwW-2" value="συνέχεια αγορών ή ολοκλήρωση παραγγελίας" style="shape=umlBoundary;whiteSpace=wrap;html=1;" parent="1" vertex="1">
          <mxGeometry x="-990" y="820" width="100" height="80" as="geometry" />
        </mxCell>
        <mxCell id="kx_d8gpz1fThckoxQMwW-3" value="" style="endArrow=classic;html=1;rounded=0;exitX=-0.023;exitY=0.492;exitDx=0;exitDy=0;exitPerimeter=0;entryX=1.016;entryY=0.482;entryDx=0;entryDy=0;entryPerimeter=0;" parent="1" source="qbaSDtBNnqxAWvWLSkWQ-68" target="kx_d8gpz1fThckoxQMwW-2" edge="1">
          <mxGeometry width="50" height="50" relative="1" as="geometry">
            <mxPoint x="-1000" y="870" as="sourcePoint" />
            <mxPoint x="-950" y="820" as="targetPoint" />
          </mxGeometry>
        </mxCell>
        <mxCell id="kx_d8gpz1fThckoxQMwW-4" value="" style="endArrow=classic;html=1;rounded=0;exitX=0.5;exitY=0.5;exitDx=0;exitDy=0;exitPerimeter=0;entryX=0.736;entryY=0.022;entryDx=0;entryDy=0;entryPerimeter=0;" parent="1" source="qbaSDtBNnqxAWvWLSkWQ-3" target="kx_d8gpz1fThckoxQMwW-2" edge="1">
          <mxGeometry width="50" height="50" relative="1" as="geometry">
            <mxPoint x="-1000" y="370" as="sourcePoint" />
            <mxPoint x="-950" y="320" as="targetPoint" />
          </mxGeometry>
        </mxCell>
        <mxCell id="kx_d8gpz1fThckoxQMwW-5" value="επιλογή" style="text;html=1;align=center;verticalAlign=middle;resizable=0;points=[];autosize=1;strokeColor=none;fillColor=none;" parent="1" vertex="1">
          <mxGeometry x="-970" y="460" width="60" height="30" as="geometry" />
        </mxCell>
        <mxCell id="kx_d8gpz1fThckoxQMwW-6" value="Δημιουργία Παραγγελίας" style="ellipse;whiteSpace=wrap;html=1;fillColor=#d5e8d4;strokeColor=#82b366;" parent="1" vertex="1">
          <mxGeometry x="-1000" y="1000" width="120" height="80" as="geometry" />
        </mxCell>
        <mxCell id="kx_d8gpz1fThckoxQMwW-7" value="συνέχεια αγορών" style="text;html=1;align=center;verticalAlign=middle;resizable=0;points=[];autosize=1;strokeColor=none;fillColor=none;" parent="1" vertex="1">
          <mxGeometry x="-1040" y="930" width="120" height="30" as="geometry" />
        </mxCell>
        <mxCell id="kx_d8gpz1fThckoxQMwW-8" value="" style="endArrow=classic;html=1;rounded=0;exitX=0.616;exitY=1.062;exitDx=0;exitDy=0;exitPerimeter=0;entryX=0.603;entryY=0.002;entryDx=0;entryDy=0;entryPerimeter=0;fillColor=#d5e8d4;strokeColor=#82b366;" parent="1" source="kx_d8gpz1fThckoxQMwW-2" target="kx_d8gpz1fThckoxQMwW-6" edge="1">
          <mxGeometry width="50" height="50" relative="1" as="geometry">
            <mxPoint x="-1000" y="970" as="sourcePoint" />
            <mxPoint x="-950" y="920" as="targetPoint" />
          </mxGeometry>
        </mxCell>
        <mxCell id="kx_d8gpz1fThckoxQMwW-9" value="&amp;nbsp;καλάθι" style="ellipse;shape=umlEntity;whiteSpace=wrap;html=1;" parent="1" vertex="1">
          <mxGeometry x="-835" y="960" width="80" height="80" as="geometry" />
        </mxCell>
        <mxCell id="kx_d8gpz1fThckoxQMwW-10" value="" style="endArrow=classic;html=1;rounded=0;exitX=0.494;exitY=0.995;exitDx=0;exitDy=0;exitPerimeter=0;entryX=0.5;entryY=0;entryDx=0;entryDy=0;" parent="1" source="qbaSDtBNnqxAWvWLSkWQ-68" target="kx_d8gpz1fThckoxQMwW-9" edge="1">
          <mxGeometry width="50" height="50" relative="1" as="geometry">
            <mxPoint x="-820" y="970" as="sourcePoint" />
            <mxPoint x="-770" y="920" as="targetPoint" />
          </mxGeometry>
        </mxCell>
        <mxCell id="kx_d8gpz1fThckoxQMwW-12" value="" style="endArrow=classic;html=1;rounded=0;exitX=-0.012;exitY=0.515;exitDx=0;exitDy=0;exitPerimeter=0;entryX=0.998;entryY=0.591;entryDx=0;entryDy=0;entryPerimeter=0;" parent="1" source="kx_d8gpz1fThckoxQMwW-2" target="vjaxEdrjSYlHlND0n6Hi-3" edge="1">
          <mxGeometry width="50" height="50" relative="1" as="geometry">
            <mxPoint x="-930" y="870" as="sourcePoint" />
            <mxPoint x="-880" y="820" as="targetPoint" />
          </mxGeometry>
        </mxCell>
        <mxCell id="Me83OcK2SVn-LIgYVFQr-1" value="αγαπημένα" style="ellipse;shape=umlEntity;whiteSpace=wrap;html=1;" parent="1" vertex="1">
          <mxGeometry x="-435" y="120" width="80" height="80" as="geometry" />
        </mxCell>
        <mxCell id="Me83OcK2SVn-LIgYVFQr-2" value="" style="endArrow=classic;html=1;rounded=0;entryX=0.5;entryY=1;entryDx=0;entryDy=0;exitX=0.443;exitY=0.143;exitDx=0;exitDy=0;exitPerimeter=0;" parent="1" source="qbaSDtBNnqxAWvWLSkWQ-35" target="Me83OcK2SVn-LIgYVFQr-1" edge="1">
          <mxGeometry width="50" height="50" relative="1" as="geometry">
            <mxPoint x="-620" y="280" as="sourcePoint" />
            <mxPoint x="-570" y="230" as="targetPoint" />
          </mxGeometry>
        </mxCell>
        <mxCell id="vjaxEdrjSYlHlND0n6Hi-1" value="προϊόντα" style="ellipse;shape=umlEntity;whiteSpace=wrap;html=1;" parent="1" vertex="1">
          <mxGeometry x="-380" y="740" width="80" height="80" as="geometry" />
        </mxCell>
        <mxCell id="vjaxEdrjSYlHlND0n6Hi-2" value="" style="endArrow=classic;html=1;rounded=0;exitX=1.037;exitY=0.718;exitDx=0;exitDy=0;exitPerimeter=0;" parent="1" source="qbaSDtBNnqxAWvWLSkWQ-53" target="vjaxEdrjSYlHlND0n6Hi-1" edge="1">
          <mxGeometry width="50" height="50" relative="1" as="geometry">
            <mxPoint x="-440" y="640" as="sourcePoint" />
            <mxPoint x="-390" y="590" as="targetPoint" />
          </mxGeometry>
        </mxCell>
        <mxCell id="vjaxEdrjSYlHlND0n6Hi-3" value="καταχώριση παραγγελίας" style="ellipse;shape=umlControl;whiteSpace=wrap;html=1;" parent="1" vertex="1">
          <mxGeometry x="-1170" y="810" width="80" height="85" as="geometry" />
        </mxCell>
        <mxCell id="vjaxEdrjSYlHlND0n6Hi-4" value="παραγγελίες" style="ellipse;shape=umlEntity;whiteSpace=wrap;html=1;" parent="1" vertex="1">
          <mxGeometry x="-1170" y="685" width="80" height="80" as="geometry" />
        </mxCell>
        <mxCell id="vjaxEdrjSYlHlND0n6Hi-5" value="" style="endArrow=classic;html=1;rounded=0;entryX=0.5;entryY=1;entryDx=0;entryDy=0;exitX=0.523;exitY=0.174;exitDx=0;exitDy=0;exitPerimeter=0;" parent="1" source="vjaxEdrjSYlHlND0n6Hi-3" target="vjaxEdrjSYlHlND0n6Hi-4" edge="1">
          <mxGeometry width="50" height="50" relative="1" as="geometry">
            <mxPoint x="-1120" y="840" as="sourcePoint" />
            <mxPoint x="-1070" y="790" as="targetPoint" />
          </mxGeometry>
        </mxCell>
        <mxCell id="u4nq2--EvxjBtqNpTbSl-1" value="εμφάνισε" style="ellipse;shape=umlControl;whiteSpace=wrap;html=1;" vertex="1" parent="1">
          <mxGeometry x="-275" y="260" width="70" height="80" as="geometry" />
        </mxCell>
        <mxCell id="u4nq2--EvxjBtqNpTbSl-2" value="" style="endArrow=classic;html=1;rounded=0;exitX=0.054;exitY=0.788;exitDx=0;exitDy=0;exitPerimeter=0;entryX=1.008;entryY=0.283;entryDx=0;entryDy=0;entryPerimeter=0;" edge="1" parent="1" source="u4nq2--EvxjBtqNpTbSl-1" target="qbaSDtBNnqxAWvWLSkWQ-37">
          <mxGeometry width="50" height="50" relative="1" as="geometry">
            <mxPoint x="-570" y="440" as="sourcePoint" />
            <mxPoint x="-520" y="390" as="targetPoint" />
          </mxGeometry>
        </mxCell>
        <mxCell id="u4nq2--EvxjBtqNpTbSl-3" value="εύρεση&lt;br&gt;φαρμακείων" style="ellipse;shape=umlControl;whiteSpace=wrap;html=1;" vertex="1" parent="1">
          <mxGeometry x="-520" y="840" width="70" height="80" as="geometry" />
        </mxCell>
        <mxCell id="u4nq2--EvxjBtqNpTbSl-4" value="" style="endArrow=classic;html=1;rounded=0;entryX=0.469;entryY=0.118;entryDx=0;entryDy=0;entryPerimeter=0;exitX=0.48;exitY=0.985;exitDx=0;exitDy=0;exitPerimeter=0;" edge="1" parent="1" source="qbaSDtBNnqxAWvWLSkWQ-53" target="u4nq2--EvxjBtqNpTbSl-3">
          <mxGeometry width="50" height="50" relative="1" as="geometry">
            <mxPoint x="-570" y="840" as="sourcePoint" />
            <mxPoint x="-520" y="790" as="targetPoint" />
          </mxGeometry>
        </mxCell>
        <mxCell id="u4nq2--EvxjBtqNpTbSl-5" value="" style="endArrow=classic;html=1;rounded=0;entryX=0;entryY=0.5;entryDx=0;entryDy=0;exitX=1.074;exitY=0.508;exitDx=0;exitDy=0;exitPerimeter=0;" edge="1" parent="1" source="u4nq2--EvxjBtqNpTbSl-3" target="qbaSDtBNnqxAWvWLSkWQ-56">
          <mxGeometry width="50" height="50" relative="1" as="geometry">
            <mxPoint x="-570" y="840" as="sourcePoint" />
            <mxPoint x="-520" y="790" as="targetPoint" />
          </mxGeometry>
        </mxCell>
        <mxCell id="u4nq2--EvxjBtqNpTbSl-6" value="" style="endArrow=classic;html=1;rounded=0;exitX=0;exitY=0.578;exitDx=0;exitDy=0;exitPerimeter=0;entryX=1.011;entryY=0.568;entryDx=0;entryDy=0;entryPerimeter=0;" edge="1" parent="1" source="u4nq2--EvxjBtqNpTbSl-3" target="qbaSDtBNnqxAWvWLSkWQ-59">
          <mxGeometry width="50" height="50" relative="1" as="geometry">
            <mxPoint x="-570" y="840" as="sourcePoint" />
            <mxPoint x="-520" y="790" as="targetPoint" />
          </mxGeometry>
        </mxCell>
        <mxCell id="u4nq2--EvxjBtqNpTbSl-7" value="" style="endArrow=classic;html=1;rounded=0;exitX=0.486;exitY=0.118;exitDx=0;exitDy=0;exitPerimeter=0;entryX=0.617;entryY=1.073;entryDx=0;entryDy=0;entryPerimeter=0;" edge="1" parent="1" source="qbaSDtBNnqxAWvWLSkWQ-59" target="qbaSDtBNnqxAWvWLSkWQ-63">
          <mxGeometry width="50" height="50" relative="1" as="geometry">
            <mxPoint x="-570" y="840" as="sourcePoint" />
            <mxPoint x="-520" y="790" as="targetPoint" />
          </mxGeometry>
        </mxCell>
      </root>
    </mxGraphModel>
  </diagram>
</mxfile>
